<svg width="311" height="78" viewBox="0 0 311 78" fill="none" xmlns="http://www.w3.org/2000/svg">
<path d="M12.024 67.468C9.72 67.468 7.728 66.94 6.048 65.884C4.392 64.804 3.12 63.28 2.232 61.312C1.344 59.344 0.9 57.064 0.9 54.472C0.9 51.76 1.356 49.432 2.268 47.488C3.18 45.52 4.464 44.02 6.12 42.988C7.8 41.956 9.756 41.44 11.988 41.44C14.292 41.44 16.284 41.98 17.964 43.06C19.644 44.14 20.928 45.664 21.816 47.632C22.728 49.576 23.184 51.856 23.184 54.472C23.184 57.16 22.716 59.488 21.78 61.456C20.868 63.4 19.572 64.888 17.892 65.92C16.212 66.952 14.256 67.468 12.024 67.468ZM12.024 64.84C13.344 64.84 14.412 64.084 15.228 62.572C16.068 61.06 16.488 58.312 16.488 54.328C16.488 50.536 16.104 47.884 15.336 46.372C14.568 44.86 13.488 44.104 12.096 44.104C10.776 44.104 9.696 44.86 8.856 46.372C8.04 47.884 7.632 50.62 7.632 54.58C7.632 58.372 8.016 61.036 8.784 62.572C9.576 64.084 10.656 64.84 12.024 64.84ZM32.866 67.396C32.65 67.396 32.182 67.372 31.462 67.324V69.952C31.462 70.6 31.69 71.092 32.146 71.428C32.626 71.764 33.166 71.932 33.766 71.932C33.766 72.652 33.49 73.288 32.938 73.84H24.982C24.406 73.264 24.118 72.628 24.118 71.932C24.814 71.932 25.27 71.788 25.486 71.5C25.702 71.212 25.81 70.696 25.81 69.952V52.708C25.81 52.06 25.63 51.604 25.27 51.34C24.91 51.052 24.286 50.908 23.398 50.908V49.288C24.166 48.832 25.138 48.436 26.314 48.1C27.514 47.74 28.438 47.56 29.086 47.56C29.59 47.56 29.998 47.668 30.31 47.884C30.622 48.076 30.85 48.448 30.994 49C31.978 48.04 33.43 47.56 35.35 47.56C36.67 47.56 37.882 47.896 38.986 48.568C40.09 49.24 40.966 50.26 41.614 51.628C42.286 52.972 42.622 54.616 42.622 56.56C42.622 58.792 42.19 60.724 41.326 62.356C40.462 63.988 39.286 65.236 37.798 66.1C36.31 66.964 34.666 67.396 32.866 67.396ZM36.394 57.424C36.394 55.096 36.034 53.404 35.314 52.348C34.594 51.292 33.646 50.764 32.47 50.764C32.086 50.764 31.75 50.836 31.462 50.98V64.408C31.87 64.648 32.326 64.768 32.83 64.768C33.886 64.768 34.738 64.156 35.386 62.932C36.058 61.708 36.394 59.872 36.394 57.424ZM54.263 63.328C55.775 63.328 57.179 62.848 58.475 61.888C58.667 62.08 58.835 62.368 58.979 62.752C59.123 63.136 59.195 63.472 59.195 63.76C59.195 64.192 58.907 64.696 58.331 65.272C57.755 65.824 56.951 66.304 55.919 66.712C54.911 67.12 53.771 67.324 52.499 67.324C50.723 67.324 49.163 66.94 47.819 66.172C46.499 65.404 45.479 64.288 44.759 62.824C44.039 61.36 43.679 59.632 43.679 57.64C43.679 55.6 44.063 53.812 44.831 52.276C45.623 50.74 46.703 49.564 48.071 48.748C49.439 47.908 50.987 47.488 52.715 47.488C54.899 47.488 56.639 48.124 57.935 49.396C59.231 50.668 59.879 52.432 59.879 54.688C59.879 55.744 59.711 56.584 59.375 57.208C59.039 57.808 58.439 58.108 57.575 58.108H49.799C49.943 61.588 51.431 63.328 54.263 63.328ZM52.499 49.972C51.755 49.972 51.131 50.392 50.627 51.232C50.123 52.048 49.847 53.428 49.799 55.372H53.435C53.819 55.372 54.071 55.24 54.191 54.976C54.311 54.712 54.371 54.304 54.371 53.752C54.371 52.336 54.203 51.352 53.867 50.8C53.531 50.248 53.075 49.972 52.499 49.972ZM73.1613 47.452C74.2413 47.452 75.0333 47.728 75.5373 48.28C76.0413 48.832 76.2933 49.588 76.2933 50.548C76.2933 51.58 76.0173 52.42 75.4653 53.068C74.9373 53.716 74.2173 54.04 73.3053 54.04C72.5133 54.04 71.8653 53.812 71.3613 53.356C70.8813 52.9 70.6413 52.36 70.6413 51.736C70.6413 51.352 70.6773 51.052 70.7493 50.836C69.8853 51.052 69.1533 51.424 68.5533 51.952V62.752C68.5533 63.352 68.6373 63.808 68.8053 64.12C68.9733 64.432 69.2973 64.672 69.7773 64.84C70.2813 64.984 71.0253 65.056 72.0093 65.056C72.0093 65.488 71.9613 65.86 71.8653 66.172C71.7693 66.46 71.5893 66.736 71.3253 67H61.7133C61.1613 66.448 60.8853 65.8 60.8853 65.056C61.5813 65.056 62.0733 64.912 62.3613 64.624C62.6733 64.312 62.8293 63.796 62.8293 63.076V52.672C62.8293 52.024 62.6493 51.568 62.2893 51.304C61.9533 51.04 61.3413 50.908 60.4533 50.908V49.288C61.2453 48.832 62.2893 48.436 63.5853 48.1C64.9053 47.74 65.9253 47.56 66.6453 47.56C67.2213 47.56 67.6293 47.764 67.8693 48.172C68.1093 48.58 68.2293 49.396 68.2293 50.62C68.6613 49.804 69.3453 49.072 70.2813 48.424C71.2173 47.776 72.1773 47.452 73.1613 47.452ZM76.0123 61.924C76.0123 60.316 76.5403 59.044 77.5963 58.108C78.6523 57.172 80.2123 56.704 82.2763 56.704C82.9963 56.704 83.7283 56.776 84.4723 56.92C85.2403 57.064 85.8643 57.256 86.3443 57.496V52.708C86.3443 51.748 86.1043 51.064 85.6243 50.656C85.1443 50.224 84.4963 50.008 83.6803 50.008C82.8883 50.008 82.2403 50.2 81.7363 50.584C82.1923 50.728 82.5283 50.98 82.7443 51.34C82.9843 51.676 83.1043 52.06 83.1043 52.492C83.1043 53.26 82.8283 53.884 82.2763 54.364C81.7243 54.844 81.0283 55.084 80.1883 55.084C79.2763 55.084 78.5443 54.82 77.9923 54.292C77.4403 53.764 77.1643 53.08 77.1643 52.24C77.1643 51.4 77.4523 50.608 78.0283 49.864C78.6043 49.12 79.4803 48.52 80.6563 48.064C81.8563 47.608 83.3323 47.38 85.0843 47.38C87.4603 47.38 89.2603 47.872 90.4843 48.856C91.7083 49.816 92.3203 51.232 92.3203 53.104V62.644C92.3203 63.796 92.8723 64.492 93.9763 64.732V65.884C93.6643 66.316 93.1483 66.652 92.4283 66.892C91.7083 67.132 90.9763 67.252 90.2323 67.252C88.6003 67.252 87.4483 66.688 86.7763 65.56C86.2243 66.04 85.5523 66.448 84.7603 66.784C83.9683 67.096 83.0683 67.252 82.0603 67.252C80.2603 67.252 78.7963 66.76 77.6683 65.776C76.5643 64.768 76.0123 63.484 76.0123 61.924ZM86.3443 60.268C86.0803 60.1 85.7563 59.956 85.3723 59.836C85.0123 59.716 84.6643 59.656 84.3283 59.656C83.6563 59.656 83.1043 59.872 82.6723 60.304C82.2403 60.712 82.0243 61.312 82.0243 62.104C82.0243 62.752 82.2403 63.292 82.6723 63.724C83.1043 64.132 83.6803 64.336 84.4003 64.336C84.7603 64.336 85.1083 64.288 85.4443 64.192C85.8043 64.072 86.1043 63.928 86.3443 63.76V60.268ZM105.212 63.544C105.884 63.544 106.544 63.448 107.192 63.256C107.864 63.064 108.416 62.788 108.848 62.428C109.04 62.644 109.196 62.932 109.316 63.292C109.46 63.652 109.532 63.964 109.532 64.228C109.532 64.732 109.268 65.236 108.74 65.74C108.236 66.244 107.54 66.664 106.652 67C105.764 67.336 104.804 67.516 103.772 67.54L102.584 70.312C103.16 70.12 103.82 70.024 104.564 70.024C105.716 70.024 106.616 70.36 107.264 71.032C107.936 71.728 108.272 72.508 108.272 73.372C108.272 74.092 108.044 74.788 107.588 75.46C107.132 76.156 106.46 76.72 105.572 77.152C104.684 77.584 103.628 77.8 102.404 77.8C101.276 77.8 100.268 77.644 99.3803 77.332C98.4923 77.044 97.8323 76.696 97.4003 76.288C97.4003 75.952 97.4843 75.604 97.6523 75.244C97.8203 74.908 98.0243 74.632 98.2643 74.416C99.4163 75.232 100.592 75.64 101.792 75.64C102.416 75.64 102.896 75.448 103.232 75.064C103.592 74.68 103.772 74.284 103.772 73.876C103.772 73.492 103.616 73.12 103.304 72.76C103.016 72.4 102.596 72.22 102.044 72.22C101.66 72.22 101.204 72.292 100.676 72.436L99.3443 71.68L100.928 67.216C98.9603 66.712 97.4123 65.632 96.2843 63.976C95.1563 62.296 94.5923 60.184 94.5923 57.64C94.5923 55.552 94.9883 53.74 95.7803 52.204C96.5963 50.668 97.7123 49.492 99.1283 48.676C100.568 47.86 102.176 47.452 103.952 47.452C105.728 47.452 107.108 47.884 108.092 48.748C109.1 49.588 109.604 50.668 109.604 51.988C109.604 53.116 109.316 54.004 108.74 54.652C108.164 55.276 107.42 55.588 106.508 55.588C105.764 55.588 105.14 55.312 104.636 54.76C104.132 54.208 103.88 53.536 103.88 52.744C103.88 52.216 103.976 51.772 104.168 51.412C104.36 51.052 104.624 50.728 104.96 50.44C104.576 50.224 104.228 50.116 103.916 50.116C103.1 50.116 102.38 50.608 101.756 51.592C101.132 52.552 100.82 54.148 100.82 56.38C100.82 58.924 101.192 60.76 101.936 61.888C102.68 62.992 103.772 63.544 105.212 63.544ZM110.177 61.924C110.177 60.316 110.705 59.044 111.761 58.108C112.817 57.172 114.377 56.704 116.441 56.704C117.161 56.704 117.893 56.776 118.637 56.92C119.405 57.064 120.029 57.256 120.509 57.496V52.708C120.509 51.748 120.269 51.064 119.789 50.656C119.309 50.224 118.661 50.008 117.845 50.008C117.053 50.008 116.405 50.2 115.901 50.584C116.357 50.728 116.693 50.98 116.909 51.34C117.149 51.676 117.269 52.06 117.269 52.492C117.269 53.26 116.993 53.884 116.441 54.364C115.889 54.844 115.193 55.084 114.353 55.084C113.441 55.084 112.709 54.82 112.157 54.292C111.605 53.764 111.329 53.08 111.329 52.24C111.329 51.4 111.617 50.608 112.193 49.864C112.769 49.12 113.645 48.52 114.821 48.064C116.021 47.608 117.497 47.38 119.249 47.38C121.625 47.38 123.425 47.872 124.649 48.856C125.873 49.816 126.485 51.232 126.485 53.104V62.644C126.485 63.796 127.037 64.492 128.141 64.732V65.884C127.829 66.316 127.313 66.652 126.593 66.892C125.873 67.132 125.141 67.252 124.397 67.252C122.765 67.252 121.613 66.688 120.941 65.56C120.389 66.04 119.717 66.448 118.925 66.784C118.133 67.096 117.233 67.252 116.225 67.252C114.425 67.252 112.961 66.76 111.833 65.776C110.729 64.768 110.177 63.484 110.177 61.924ZM120.509 60.268C120.245 60.1 119.921 59.956 119.537 59.836C119.177 59.716 118.829 59.656 118.493 59.656C117.821 59.656 117.269 59.872 116.837 60.304C116.405 60.712 116.189 61.312 116.189 62.104C116.189 62.752 116.405 63.292 116.837 63.724C117.269 64.132 117.845 64.336 118.565 64.336C118.925 64.336 119.273 64.288 119.609 64.192C119.969 64.072 120.269 63.928 120.509 63.76V60.268ZM124.325 39.1C124.397 39.028 124.493 38.992 124.613 38.992C124.949 38.992 125.297 39.196 125.657 39.604C126.017 39.988 126.197 40.396 126.197 40.828C126.197 40.948 126.185 41.032 126.161 41.08C125.681 42.04 125.081 42.844 124.361 43.492C123.665 44.116 122.753 44.428 121.625 44.428C120.977 44.428 120.461 44.332 120.077 44.14C119.693 43.948 119.225 43.636 118.673 43.204C118.265 42.868 117.905 42.628 117.593 42.484C117.281 42.316 116.957 42.232 116.621 42.232C115.757 42.232 114.845 42.772 113.885 43.852C113.813 43.924 113.717 43.96 113.597 43.96C113.285 43.96 112.937 43.768 112.553 43.384C112.193 42.976 112.013 42.568 112.013 42.16C112.013 42.04 112.025 41.944 112.049 41.872C112.337 41.032 112.901 40.264 113.741 39.568C114.581 38.872 115.529 38.524 116.585 38.524C117.377 38.524 118.001 38.644 118.457 38.884C118.937 39.1 119.441 39.436 119.969 39.892C120.617 40.444 121.157 40.72 121.589 40.72C122.453 40.72 123.365 40.18 124.325 39.1ZM137.469 67.468C134.829 67.468 132.717 66.64 131.133 64.984C129.549 63.304 128.757 60.916 128.757 57.82C128.757 55.612 129.129 53.728 129.873 52.168C130.641 50.608 131.709 49.432 133.077 48.64C134.445 47.848 136.029 47.452 137.829 47.452C139.557 47.452 141.069 47.836 142.365 48.604C143.685 49.348 144.705 50.452 145.425 51.916C146.169 53.38 146.541 55.156 146.541 57.244C146.541 59.428 146.157 61.288 145.389 62.824C144.645 64.36 143.589 65.524 142.221 66.316C140.853 67.084 139.269 67.468 137.469 67.468ZM137.757 64.876C138.597 64.876 139.221 64.396 139.629 63.436C140.037 62.476 140.241 60.7 140.241 58.108C140.241 55.924 140.133 54.244 139.917 53.068C139.701 51.892 139.401 51.088 139.017 50.656C138.633 50.224 138.141 50.008 137.541 50.008C136.701 50.008 136.065 50.488 135.633 51.448C135.225 52.408 135.021 54.208 135.021 56.848C135.021 59.008 135.129 60.676 135.345 61.852C135.561 63.004 135.861 63.796 136.245 64.228C136.653 64.66 137.157 64.876 137.757 64.876ZM164.769 53.32C165.441 53.32 165.921 53.104 166.209 52.672C166.497 52.216 166.641 51.496 166.641 50.512C167.193 50.512 167.757 50.584 168.333 50.728C168.909 50.872 169.377 51.064 169.737 51.304V57.964C169.377 58.204 168.909 58.396 168.333 58.54C167.757 58.684 167.193 58.756 166.641 58.756C166.641 57.772 166.497 57.076 166.209 56.668C165.945 56.236 165.477 56.02 164.805 56.02H161.817V62.428C161.817 63.172 161.973 63.712 162.285 64.048C162.621 64.384 163.257 64.552 164.193 64.552H167.073C167.073 65.68 166.857 66.496 166.425 67H154.293C154.029 66.712 153.825 66.364 153.681 65.956C153.537 65.548 153.465 65.128 153.465 64.696C154.425 64.696 155.073 64.564 155.409 64.3C155.745 64.036 155.913 63.568 155.913 62.896V45.976C155.913 45.328 155.721 44.872 155.337 44.608C154.977 44.32 154.401 44.176 153.609 44.176C153.609 43.288 153.885 42.532 154.437 41.908H168.189C169.125 41.5 170.037 41.296 170.925 41.296C171.213 41.848 171.477 42.736 171.717 43.96C171.981 45.16 172.113 46.084 172.113 46.732C171.825 46.996 171.369 47.272 170.745 47.56C170.121 47.824 169.557 48.004 169.053 48.1C168.765 47.188 168.285 46.444 167.613 45.868C166.965 45.268 166.089 44.968 164.985 44.968H161.817V53.32H164.769ZM183.469 63.328C184.981 63.328 186.385 62.848 187.681 61.888C187.873 62.08 188.041 62.368 188.185 62.752C188.329 63.136 188.401 63.472 188.401 63.76C188.401 64.192 188.113 64.696 187.537 65.272C186.961 65.824 186.157 66.304 185.125 66.712C184.117 67.12 182.977 67.324 181.705 67.324C179.929 67.324 178.369 66.94 177.025 66.172C175.705 65.404 174.685 64.288 173.965 62.824C173.245 61.36 172.885 59.632 172.885 57.64C172.885 55.6 173.269 53.812 174.037 52.276C174.829 50.74 175.909 49.564 177.277 48.748C178.645 47.908 180.193 47.488 181.921 47.488C184.105 47.488 185.845 48.124 187.141 49.396C188.437 50.668 189.085 52.432 189.085 54.688C189.085 55.744 188.917 56.584 188.581 57.208C188.245 57.808 187.645 58.108 186.781 58.108H179.005C179.149 61.588 180.637 63.328 183.469 63.328ZM181.705 49.972C180.961 49.972 180.337 50.392 179.833 51.232C179.329 52.048 179.053 53.428 179.005 55.372H182.641C183.025 55.372 183.277 55.24 183.397 54.976C183.517 54.712 183.577 54.304 183.577 53.752C183.577 52.336 183.409 51.352 183.073 50.8C182.737 50.248 182.281 49.972 181.705 49.972ZM192.144 43.96C192.144 43.36 191.964 42.916 191.604 42.628C191.268 42.316 190.632 42.16 189.696 42.16V40.72C190.56 40.24 191.652 39.832 192.972 39.496C194.292 39.16 195.36 38.992 196.176 38.992C196.752 38.992 197.16 39.112 197.4 39.352C197.64 39.592 197.76 40.012 197.76 40.612V63.076C197.76 63.82 197.904 64.336 198.192 64.624C198.504 64.912 199.02 65.056 199.74 65.056C199.74 65.728 199.452 66.376 198.876 67H190.992C190.44 66.4 190.164 65.752 190.164 65.056C190.86 65.056 191.364 64.912 191.676 64.624C191.988 64.312 192.144 63.796 192.144 63.076V43.96ZM208.932 41.548C208.932 42.58 208.608 43.408 207.96 44.032C207.336 44.632 206.496 44.932 205.44 44.932C204.408 44.932 203.58 44.632 202.956 44.032C202.356 43.408 202.056 42.58 202.056 41.548C202.056 40.54 202.368 39.724 202.992 39.1C203.64 38.476 204.48 38.164 205.512 38.164C206.544 38.164 207.372 38.476 207.996 39.1C208.62 39.724 208.932 40.54 208.932 41.548ZM208.248 63.112C208.248 63.808 208.416 64.312 208.752 64.624C209.112 64.912 209.652 65.056 210.372 65.056C210.372 65.8 210.096 66.448 209.544 67H201.408C200.856 66.448 200.58 65.8 200.58 65.056C201.3 65.056 201.816 64.912 202.128 64.624C202.464 64.312 202.632 63.796 202.632 63.076V52.636C202.632 51.964 202.464 51.484 202.128 51.196C201.816 50.908 201.192 50.764 200.256 50.764V49.18C200.832 48.82 201.804 48.448 203.172 48.064C204.564 47.656 205.74 47.452 206.7 47.452C207.252 47.452 207.648 47.584 207.888 47.848C208.128 48.088 208.248 48.508 208.248 49.108V63.112ZM225.222 62.428C225.414 62.644 225.57 62.932 225.69 63.292C225.834 63.652 225.906 63.964 225.906 64.228C225.906 64.756 225.63 65.272 225.078 65.776C224.526 66.28 223.782 66.7 222.846 67.036C221.934 67.372 220.938 67.54 219.858 67.54C218.106 67.54 216.558 67.144 215.214 66.352C213.87 65.56 212.826 64.42 212.082 62.932C211.338 61.444 210.966 59.68 210.966 57.64C210.966 55.552 211.362 53.74 212.154 52.204C212.97 50.668 214.086 49.492 215.502 48.676C216.942 47.86 218.55 47.452 220.326 47.452C222.102 47.452 223.482 47.884 224.466 48.748C225.474 49.588 225.978 50.668 225.978 51.988C225.978 53.116 225.69 54.004 225.114 54.652C224.538 55.276 223.794 55.588 222.882 55.588C222.138 55.588 221.514 55.312 221.01 54.76C220.506 54.208 220.254 53.536 220.254 52.744C220.254 52.216 220.35 51.772 220.542 51.412C220.734 51.052 220.998 50.728 221.334 50.44C220.95 50.224 220.602 50.116 220.29 50.116C219.474 50.116 218.754 50.608 218.13 51.592C217.506 52.552 217.194 54.148 217.194 56.38C217.194 58.924 217.566 60.76 218.31 61.888C219.054 62.992 220.146 63.544 221.586 63.544C222.258 63.544 222.918 63.448 223.566 63.256C224.238 63.064 224.79 62.788 225.222 62.428ZM234.975 41.548C234.975 42.58 234.651 43.408 234.003 44.032C233.379 44.632 232.539 44.932 231.483 44.932C230.451 44.932 229.623 44.632 228.999 44.032C228.399 43.408 228.099 42.58 228.099 41.548C228.099 40.54 228.411 39.724 229.035 39.1C229.683 38.476 230.523 38.164 231.555 38.164C232.587 38.164 233.415 38.476 234.039 39.1C234.663 39.724 234.975 40.54 234.975 41.548ZM234.291 63.112C234.291 63.808 234.459 64.312 234.795 64.624C235.155 64.912 235.695 65.056 236.415 65.056C236.415 65.8 236.139 66.448 235.587 67H227.451C226.899 66.448 226.623 65.8 226.623 65.056C227.343 65.056 227.859 64.912 228.171 64.624C228.507 64.312 228.675 63.796 228.675 63.076V52.636C228.675 51.964 228.507 51.484 228.171 51.196C227.859 50.908 227.235 50.764 226.299 50.764V49.18C226.875 48.82 227.847 48.448 229.215 48.064C230.607 47.656 231.783 47.452 232.743 47.452C233.295 47.452 233.691 47.584 233.931 47.848C234.171 48.088 234.291 48.508 234.291 49.108V63.112ZM256.09 66.1C255.754 66.532 255.25 66.868 254.578 67.108C253.906 67.348 253.186 67.468 252.418 67.468C251.722 67.468 251.038 67.312 250.366 67C249.694 66.712 249.226 66.304 248.962 65.776C248.482 66.4 247.882 66.832 247.162 67.072C246.466 67.336 245.59 67.468 244.534 67.468C243.19 67.468 241.954 67.132 240.826 66.46C239.698 65.764 238.786 64.744 238.09 63.4C237.418 62.032 237.082 60.364 237.082 58.396C237.082 56.068 237.514 54.088 238.378 52.456C239.266 50.824 240.43 49.6 241.87 48.784C243.31 47.968 244.894 47.56 246.622 47.56C247.03 47.56 247.762 47.608 248.818 47.704L248.71 45.544V43.744C248.71 43.144 248.542 42.7 248.206 42.412C247.87 42.124 247.234 41.98 246.298 41.98V40.504C247.138 40.048 248.23 39.64 249.574 39.28C250.918 38.92 251.974 38.74 252.742 38.74C253.294 38.74 253.69 38.872 253.93 39.136C254.194 39.376 254.326 39.796 254.326 40.396V63.004C254.326 64.18 254.902 64.876 256.054 65.092L256.09 66.1ZM247.018 64.408C247.762 64.408 248.326 64.192 248.71 63.76V51.16C248.206 50.464 247.534 50.116 246.694 50.116C245.638 50.116 244.786 50.668 244.138 51.772C243.514 52.876 243.202 54.664 243.202 57.136C243.202 59.512 243.55 61.324 244.246 62.572C244.966 63.796 245.89 64.408 247.018 64.408ZM256.357 61.924C256.357 60.316 256.885 59.044 257.941 58.108C258.997 57.172 260.557 56.704 262.621 56.704C263.341 56.704 264.073 56.776 264.817 56.92C265.585 57.064 266.209 57.256 266.689 57.496V52.708C266.689 51.748 266.449 51.064 265.969 50.656C265.489 50.224 264.841 50.008 264.025 50.008C263.233 50.008 262.585 50.2 262.081 50.584C262.537 50.728 262.873 50.98 263.089 51.34C263.329 51.676 263.449 52.06 263.449 52.492C263.449 53.26 263.173 53.884 262.621 54.364C262.069 54.844 261.373 55.084 260.533 55.084C259.621 55.084 258.889 54.82 258.337 54.292C257.785 53.764 257.509 53.08 257.509 52.24C257.509 51.4 257.797 50.608 258.373 49.864C258.949 49.12 259.825 48.52 261.001 48.064C262.201 47.608 263.677 47.38 265.429 47.38C267.805 47.38 269.605 47.872 270.829 48.856C272.053 49.816 272.665 51.232 272.665 53.104V62.644C272.665 63.796 273.217 64.492 274.321 64.732V65.884C274.009 66.316 273.493 66.652 272.773 66.892C272.053 67.132 271.321 67.252 270.577 67.252C268.945 67.252 267.793 66.688 267.121 65.56C266.569 66.04 265.897 66.448 265.105 66.784C264.313 67.096 263.413 67.252 262.405 67.252C260.605 67.252 259.141 66.76 258.013 65.776C256.909 64.768 256.357 63.484 256.357 61.924ZM266.689 60.268C266.425 60.1 266.101 59.956 265.717 59.836C265.357 59.716 265.009 59.656 264.673 59.656C264.001 59.656 263.449 59.872 263.017 60.304C262.585 60.712 262.369 61.312 262.369 62.104C262.369 62.752 262.585 63.292 263.017 63.724C263.449 64.132 264.025 64.336 264.745 64.336C265.105 64.336 265.453 64.288 265.789 64.192C266.149 64.072 266.449 63.928 266.689 63.76V60.268ZM294.017 66.1C293.681 66.532 293.177 66.868 292.505 67.108C291.833 67.348 291.113 67.468 290.345 67.468C289.649 67.468 288.965 67.312 288.293 67C287.621 66.712 287.153 66.304 286.889 65.776C286.409 66.4 285.809 66.832 285.089 67.072C284.393 67.336 283.517 67.468 282.461 67.468C281.117 67.468 279.881 67.132 278.753 66.46C277.625 65.764 276.713 64.744 276.017 63.4C275.345 62.032 275.009 60.364 275.009 58.396C275.009 56.068 275.441 54.088 276.305 52.456C277.193 50.824 278.357 49.6 279.797 48.784C281.237 47.968 282.821 47.56 284.549 47.56C284.957 47.56 285.689 47.608 286.745 47.704L286.637 45.544V43.744C286.637 43.144 286.469 42.7 286.133 42.412C285.797 42.124 285.161 41.98 284.225 41.98V40.504C285.065 40.048 286.157 39.64 287.501 39.28C288.845 38.92 289.901 38.74 290.669 38.74C291.221 38.74 291.617 38.872 291.857 39.136C292.121 39.376 292.253 39.796 292.253 40.396V63.004C292.253 64.18 292.829 64.876 293.981 65.092L294.017 66.1ZM284.945 64.408C285.689 64.408 286.253 64.192 286.637 63.76V51.16C286.133 50.464 285.461 50.116 284.621 50.116C283.565 50.116 282.713 50.668 282.065 51.772C281.441 52.876 281.129 54.664 281.129 57.136C281.129 59.512 281.477 61.324 282.173 62.572C282.893 63.796 283.817 64.408 284.945 64.408ZM304.308 63.328C305.82 63.328 307.224 62.848 308.52 61.888C308.712 62.08 308.88 62.368 309.024 62.752C309.168 63.136 309.24 63.472 309.24 63.76C309.24 64.192 308.952 64.696 308.376 65.272C307.8 65.824 306.996 66.304 305.964 66.712C304.956 67.12 303.816 67.324 302.544 67.324C300.768 67.324 299.208 66.94 297.864 66.172C296.544 65.404 295.524 64.288 294.804 62.824C294.084 61.36 293.724 59.632 293.724 57.64C293.724 55.6 294.108 53.812 294.876 52.276C295.668 50.74 296.748 49.564 298.116 48.748C299.484 47.908 301.032 47.488 302.76 47.488C304.944 47.488 306.684 48.124 307.98 49.396C309.276 50.668 309.924 52.432 309.924 54.688C309.924 55.744 309.756 56.584 309.42 57.208C309.084 57.808 308.484 58.108 307.62 58.108H299.844C299.988 61.588 301.476 63.328 304.308 63.328ZM302.544 49.972C301.8 49.972 301.176 50.392 300.672 51.232C300.168 52.048 299.892 53.428 299.844 55.372H303.48C303.864 55.372 304.116 55.24 304.236 54.976C304.356 54.712 304.416 54.304 304.416 53.752C304.416 52.336 304.248 51.352 303.912 50.8C303.576 50.248 303.12 49.972 302.544 49.972Z" fill="black"/>
<path d="M143.04 20.304C143.216 20.912 143.44 21.368 143.712 21.672C144 21.96 144.368 22.136 144.816 22.2V23.4C144.448 23.912 143.752 24.168 142.728 24.168C141.768 24.168 141.008 24.008 140.448 23.688C139.904 23.368 139.496 22.952 139.224 22.44C138.968 21.912 138.728 21.224 138.504 20.376C138.264 19.432 138.008 18.648 137.736 18.024C137.464 17.4 137.112 17.016 136.68 16.872H135.096V21.264C135.096 21.68 135.248 21.992 135.552 22.2C135.856 22.392 136.256 22.488 136.752 22.488C136.752 23.064 136.576 23.568 136.224 24H130.2C129.832 23.552 129.648 23.048 129.648 22.488C130.192 22.488 130.584 22.392 130.824 22.2C131.08 22.008 131.208 21.696 131.208 21.264V9.984C131.208 9.552 131.08 9.24 130.824 9.048C130.568 8.856 130.168 8.76 129.624 8.76C129.624 8.12 129.784 7.616 130.104 7.248C131.16 7.248 132.344 7.216 133.656 7.152C134.808 7.088 135.712 7.056 136.368 7.056C140.944 7.056 143.232 8.6 143.232 11.688C143.232 14.04 141.984 15.472 139.488 15.984C140.208 16.192 140.896 16.696 141.552 17.496C142.208 18.28 142.704 19.216 143.04 20.304ZM136.152 15.216C137.112 15.216 137.864 14.92 138.408 14.328C138.952 13.72 139.224 12.92 139.224 11.928C139.224 10.904 138.984 10.144 138.504 9.648C138.04 9.136 137.296 8.88 136.272 8.88C135.728 8.88 135.336 8.912 135.096 8.976V15.168C135.384 15.2 135.736 15.216 136.152 15.216ZM150.224 7.032C150.224 7.72 150.008 8.272 149.576 8.688C149.16 9.088 148.6 9.288 147.896 9.288C147.208 9.288 146.656 9.088 146.24 8.688C145.84 8.272 145.64 7.72 145.64 7.032C145.64 6.36 145.848 5.816 146.264 5.4C146.696 4.984 147.256 4.776 147.944 4.776C148.632 4.776 149.184 4.984 149.6 5.4C150.016 5.816 150.224 6.36 150.224 7.032ZM149.768 21.408C149.768 21.872 149.88 22.208 150.104 22.416C150.344 22.608 150.704 22.704 151.184 22.704C151.184 23.2 151 23.632 150.632 24H145.208C144.84 23.632 144.656 23.2 144.656 22.704C145.136 22.704 145.48 22.608 145.688 22.416C145.912 22.208 146.024 21.864 146.024 21.384V14.424C146.024 13.976 145.912 13.656 145.688 13.464C145.48 13.272 145.064 13.176 144.44 13.176V12.12C144.824 11.88 145.472 11.632 146.384 11.376C147.312 11.104 148.096 10.968 148.736 10.968C149.104 10.968 149.368 11.056 149.528 11.232C149.688 11.392 149.768 11.672 149.768 12.072V21.408ZM157.087 4.272C157.807 4.272 158.431 4.424 158.959 4.728C159.487 5.032 159.887 5.408 160.159 5.856C160.447 6.288 160.592 6.72 160.592 7.152C160.592 7.744 160.431 8.24 160.111 8.64C159.791 9.04 159.375 9.24 158.863 9.24C158.383 9.24 157.959 9.072 157.591 8.736C157.223 8.384 157.039 7.984 157.039 7.536C157.039 6.96 157.279 6.496 157.759 6.144C157.711 6.064 157.623 6 157.495 5.952C157.383 5.888 157.279 5.856 157.183 5.856C156.799 5.856 156.455 6.12 156.151 6.648C155.863 7.176 155.719 7.784 155.719 8.472C155.719 8.936 155.759 9.384 155.839 9.816C155.935 10.248 156.039 10.6 156.151 10.872C156.279 11.144 156.399 11.28 156.511 11.28H158.815C158.815 12.304 158.679 13.024 158.407 13.44H156.367V21.168C156.367 21.552 156.423 21.856 156.535 22.08C156.663 22.288 156.887 22.448 157.207 22.56C157.543 22.656 158.039 22.704 158.695 22.704C158.695 23.2 158.511 23.632 158.143 24H151.807C151.439 23.632 151.255 23.2 151.255 22.704C151.735 22.704 152.071 22.6 152.263 22.392C152.471 22.184 152.575 21.848 152.575 21.384V13.44H151.111V11.952C151.639 11.824 152.111 11.608 152.527 11.304C152.399 10.536 152.335 9.848 152.335 9.24C152.335 7.608 152.759 6.376 153.607 5.544C154.455 4.696 155.615 4.272 157.087 4.272ZM159.064 20.616C159.064 19.544 159.416 18.696 160.12 18.072C160.824 17.448 161.864 17.136 163.24 17.136C163.72 17.136 164.208 17.184 164.704 17.28C165.216 17.376 165.632 17.504 165.952 17.664V14.472C165.952 13.832 165.792 13.376 165.472 13.104C165.152 12.816 164.72 12.672 164.176 12.672C163.648 12.672 163.216 12.8 162.88 13.056C163.184 13.152 163.408 13.32 163.552 13.56C163.712 13.784 163.792 14.04 163.792 14.328C163.792 14.84 163.608 15.256 163.24 15.576C162.872 15.896 162.408 16.056 161.848 16.056C161.24 16.056 160.752 15.88 160.384 15.528C160.016 15.176 159.832 14.72 159.832 14.16C159.832 13.6 160.024 13.072 160.408 12.576C160.792 12.08 161.376 11.68 162.16 11.376C162.96 11.072 163.944 10.92 165.112 10.92C166.696 10.92 167.896 11.248 168.712 11.904C169.528 12.544 169.936 13.488 169.936 14.736V21.096C169.936 21.864 170.304 22.328 171.04 22.488V23.256C170.832 23.544 170.488 23.768 170.008 23.928C169.528 24.088 169.04 24.168 168.544 24.168C167.456 24.168 166.688 23.792 166.24 23.04C165.872 23.36 165.424 23.632 164.896 23.856C164.368 24.064 163.768 24.168 163.096 24.168C161.896 24.168 160.92 23.84 160.168 23.184C159.432 22.512 159.064 21.656 159.064 20.616ZM165.952 19.512C165.776 19.4 165.56 19.304 165.304 19.224C165.064 19.144 164.832 19.104 164.608 19.104C164.16 19.104 163.792 19.248 163.504 19.536C163.216 19.808 163.072 20.208 163.072 20.736C163.072 21.168 163.216 21.528 163.504 21.816C163.792 22.088 164.176 22.224 164.656 22.224C164.896 22.224 165.128 22.192 165.352 22.128C165.592 22.048 165.792 21.952 165.952 21.84V19.512ZM176.371 24.24C175.587 24.24 174.803 24.128 174.019 23.904C173.251 23.664 172.619 23.328 172.123 22.896C171.627 22.464 171.379 21.952 171.379 21.36C171.379 20.8 171.539 20.352 171.859 20.016C172.179 19.664 172.587 19.488 173.083 19.488C173.531 19.488 173.907 19.632 174.211 19.92C174.531 20.208 174.691 20.584 174.691 21.048C174.691 21.256 174.659 21.44 174.595 21.6C174.547 21.744 174.451 21.904 174.307 22.08C174.435 22.208 174.675 22.312 175.027 22.392C175.379 22.456 175.755 22.488 176.155 22.488C176.699 22.488 177.123 22.392 177.427 22.2C177.747 21.992 177.907 21.728 177.907 21.408C177.907 20.976 177.707 20.608 177.307 20.304C176.907 19.984 176.267 19.592 175.387 19.128C174.491 18.648 173.811 18.256 173.347 17.952C172.883 17.632 172.467 17.208 172.099 16.68C171.747 16.136 171.571 15.472 171.571 14.688C171.571 13.6 172.019 12.72 172.915 12.048C173.811 11.376 175.051 11.04 176.635 11.04C178.187 11.04 179.339 11.32 180.091 11.88C180.859 12.424 181.243 13.08 181.243 13.848C181.243 14.328 181.083 14.72 180.763 15.024C180.459 15.328 180.083 15.48 179.635 15.48C179.219 15.48 178.859 15.36 178.555 15.12C178.267 14.864 178.123 14.536 178.123 14.136C178.123 13.928 178.155 13.72 178.219 13.512C178.283 13.288 178.371 13.104 178.483 12.96C178.163 12.704 177.683 12.576 177.043 12.576C176.531 12.576 176.131 12.696 175.843 12.936C175.555 13.176 175.411 13.48 175.411 13.848C175.411 14.344 175.611 14.752 176.011 15.072C176.411 15.392 177.051 15.776 177.931 16.224C178.763 16.656 179.419 17.032 179.899 17.352C180.379 17.672 180.795 18.096 181.147 18.624C181.499 19.152 181.675 19.8 181.675 20.568C181.675 21.816 181.163 22.744 180.139 23.352C179.131 23.944 177.875 24.24 176.371 24.24Z" fill="black"/>
</svg>
